# xmcd CD database file
#
# Track frame offsets:
#	150
#	26887
#	42232
#	64857
#	83807
#	95017
#	125777
#	142382
#	152807
#	176037
#	207142
#	226737
#	241462
#	262767
#
# Disc length: 3738 seconds
#
# Revision: 3
# Processed by: cddbd v1.5.2PL0 Copyright (c) Steve Scherf et al.
# Submitted via: CDex 1.51
#
DISCID=c80e980e
DTITLE=Lil' Ed And The Blues Imperials - ...What You See Is What You Get
DYEAR=1992
DGENRE=Blues
TTITLE0=Life Is Like Gambling
TTITLE1=Find My Baby
TTITLE2=Older Woman
TTITLE3=Please Help
TTITLE4=Toothache
TTITLE5=Living For Today
TTITLE6=Travellin' Life
TTITLE7=Out Of The House
TTITLE8=Upset Man
TTITLE9=Long, Long Way From Home
TTITLE10=What You See Is What You Get
TTITLE11=Bluesmobile
TTITLE12=What Am I Gonna Do?
TTITLE13=Packin' Up
EXTD=YEAR: 1992
EXTT0=
EXTT1=
EXTT2=
EXTT3=
EXTT4=
EXTT5=
EXTT6=
EXTT7=
EXTT8=
EXTT9=
EXTT10=
EXTT11=
EXTT12=
EXTT13=
PLAYORDER=
